HIERARCHY
ROOT Hips
{
	OFFSET 0.000000 89.005402 0.000000
	CHANNELS 6 Xposition Yposition Zposition Xrotation Yrotation Zrotation
	JOINT Spine
	{
		OFFSET 0.116900 10.681000 0.373400
		CHANNELS 3 Xrotation Yrotation Zrotation
		JOINT Spine1
		{
			OFFSET 0.000000 13.840401 0.053500
			CHANNELS 3 Xrotation Yrotation Zrotation
			JOINT Spine2
			{
				OFFSET 0.000000 14.712700 -0.366200
				CHANNELS 3 Xrotation Yrotation Zrotation
				JOINT Neck
				{
					OFFSET 0.000000 35.415497 -3.314200
					CHANNELS 3 Xrotation Yrotation Zrotation
					JOINT Head
					{
						OFFSET 0.000000 16.899200 1.218300
						CHANNELS 3 Xrotation Yrotation Zrotation
						JOINT HeadTop_End
						{
							OFFSET 0.000000 22.206207 2.192500
							CHANNELS 3 Xrotation Yrotation Zrotation
							End Site
							{
								OFFSET 0.000000 22.314178 0.000000
							}
						}
					}
				}
				JOINT LeftShoulder
				{
					OFFSET 12.896400 26.716293 -4.548400
					CHANNELS 3 Xrotation Yrotation Zrotation
					JOINT LeftArm
					{
						OFFSET 19.027000 -4.857010 -1.718400
						CHANNELS 3 Xrotation Yrotation Zrotation
						JOINT LeftForeArm
						{
							OFFSET 24.179897 0.000000 0.000000
							CHANNELS 3 Xrotation Yrotation Zrotation
							JOINT LeftHand
							{
								OFFSET 27.156403 0.000000 0.000000
								CHANNELS 3 Xrotation Yrotation Zrotation
								JOINT LeftHandIndex1
								{
									OFFSET 16.441200 0.000000 0.000000
									CHANNELS 3 Xrotation Yrotation Zrotation
									JOINT LeftHandIndex2
									{
										OFFSET 4.821899 0.000000 0.000000
										CHANNELS 3 Xrotation Yrotation Zrotation
										JOINT LeftHandIndex3
										{
											OFFSET 6.386497 0.000000 0.000000
											CHANNELS 3 Xrotation Yrotation Zrotation
											JOINT LeftHandIndex4
											{
												OFFSET 5.188988 0.000000 0.000000
												CHANNELS 3 Xrotation Yrotation Zrotation
												End Site
												{
													OFFSET -0.178703 5.185913 0.000177
												}
											}
										}
									}
								}
								JOINT LeftHandThumb1
								{
									OFFSET 6.534897 -5.032593 5.900300
									CHANNELS 3 Xrotation Yrotation Zrotation
									JOINT LeftHandThumb2
									{
										OFFSET 3.818176 -2.204422 2.204423
										CHANNELS 3 Xrotation Yrotation Zrotation
										JOINT LeftHandThumb3
										{
											OFFSET 3.252098 -1.877594 1.877601
											CHANNELS 3 Xrotation Yrotation Zrotation
											JOINT LeftHandThumb4
											{
												OFFSET 5.251778 -3.032120 3.032117
												CHANNELS 3 Xrotation Yrotation Zrotation
												End Site
												{
													OFFSET 0.000023 6.780014 0.000000
												}
											}
										}
									}
								}
							}
						}
					}
				}
				JOINT RightShoulder
				{
					OFFSET -12.896300 26.716293 -4.548400
					CHANNELS 3 Xrotation Yrotation Zrotation
					JOINT RightArm
					{
						OFFSET -19.027000 -4.857010 -1.718400
						CHANNELS 3 Xrotation Yrotation Zrotation
						JOINT RightForeArm
						{
							OFFSET -24.179897 0.000000 0.000000
							CHANNELS 3 Xrotation Yrotation Zrotation
							JOINT RightHand
							{
								OFFSET -27.156403 0.000000 0.000000
								CHANNELS 3 Xrotation Yrotation Zrotation
								JOINT RightHandThumb1
								{
									OFFSET -6.591202 -4.852203 5.988100
									CHANNELS 3 Xrotation Yrotation Zrotation
									JOINT RightHandThumb2
									{
										OFFSET -3.818176 -2.204422 2.204423
										CHANNELS 3 Xrotation Yrotation Zrotation
										JOINT RightHandThumb3
										{
											OFFSET -3.252098 -1.877594 1.877601
											CHANNELS 3 Xrotation Yrotation Zrotation
											JOINT RightHandThumb4
											{
												OFFSET -5.251778 -3.032120 3.032117
												CHANNELS 3 Xrotation Yrotation Zrotation
												End Site
												{
													OFFSET -0.000023 6.780014 0.000000
												}
											}
										}
									}
								}
								JOINT RightHandIndex1
								{
									OFFSET -16.029404 0.000000 0.000000
									CHANNELS 3 Xrotation Yrotation Zrotation
									JOINT RightHandIndex2
									{
										OFFSET -5.213303 0.000000 0.000000
										CHANNELS 3 Xrotation Yrotation Zrotation
										JOINT RightHandIndex3
										{
											OFFSET -6.386528 0.000000 0.000000
											CHANNELS 3 Xrotation Yrotation Zrotation
											JOINT RightHandIndex4
											{
												OFFSET -5.189026 0.000000 0.000000
												CHANNELS 3 Xrotation Yrotation Zrotation
												End Site
												{
													OFFSET 0.236702 5.183624 0.001972
												}
											}
										}
									}
								}
							}
						}
					}
				}
			}
		}
	}
	JOINT LeftUpLeg
	{
		OFFSET 14.073000 -7.904099 -1.463000
		CHANNELS 3 Xrotation Yrotation Zrotation
		JOINT LeftLeg
		{
			OFFSET -0.109806 -34.073280 4.093200
			CHANNELS 3 Xrotation Yrotation Zrotation
			JOINT LeftFoot
			{
				OFFSET 0.109806 -29.899420 -6.319000
				CHANNELS 3 Xrotation Yrotation Zrotation
				JOINT LeftToeBase
				{
					OFFSET 1.551100 -14.988700 20.535801
					CHANNELS 3 Xrotation Yrotation Zrotation
					JOINT LeftToe_End
					{
						OFFSET 0.221200 0.570800 13.248301
						CHANNELS 3 Xrotation Yrotation Zrotation
						End Site
						{
							OFFSET 0.000000 13.262435 0.000000
						}
					}
				}
			}
		}
	}
	JOINT RightUpLeg
	{
		OFFSET -13.839300 -7.904099 -1.463000
		CHANNELS 3 Xrotation Yrotation Zrotation
		JOINT RightLeg
		{
			OFFSET 0.109694 -34.073219 4.093300
			CHANNELS 3 Xrotation Yrotation Zrotation
			JOINT RightFoot
			{
				OFFSET -0.109694 -29.899384 -6.319200
				CHANNELS 3 Xrotation Yrotation Zrotation
				JOINT RightToeBase
				{
					OFFSET -1.551100 -14.988700 20.535801
					CHANNELS 3 Xrotation Yrotation Zrotation
					JOINT RightToe_End
					{
						OFFSET -0.221200 0.570900 13.248299
						CHANNELS 3 Xrotation Yrotation Zrotation
						End Site
						{
							OFFSET 0.000000 13.262440 0.000000
						}
					}
				}
			}
		}
	}
}
MOTION
Frames: 5
Frame Time: 0.033333
-0.040420 77.820793 0.735337 -1.485968 -29.879175 0.848518 4.405688 0.236243 -1.584425 3.703999 0.368347 -0.506649 3.699437 0.393439 -0.514915 7.741897 3.741971 -1.287390 -2.716746 23.163140 -5.790210 -0.000000 -0.000000 0.000000 5.269392 -13.921282 -8.950846 -42.610600 29.092566 -26.782437 0.000010 -109.272030 0.000009 19.342916 -7.254276 4.311677 3.143619 10.572713 -68.370515 6.542379 6.507905 -97.517316 4.199627 5.576858 -76.337261 -0.000000 0.000001 -0.000001 20.139361 -6.188848 1.117551 6.226515 38.554427 -20.060855 16.319858 65.132213 2.519935 -0.000000 -0.000001 -0.000000 12.126378 15.263690 5.119576 -24.383750 22.475972 46.439535 0.000021 116.830919 -0.000042 -1.621130 7.900225 -18.145123 -6.589307 1.347538 11.402168 1.887008 -42.794823 -14.472807 13.978777 -58.392250 -2.604840 0.000002 0.000001 0.000003 5.639308 -11.298157 94.224666 6.084672 -6.549551 92.945139 3.888492 -5.663665 83.362520 -0.000002 0.000001 0.000001 -32.247143 15.983700 30.284229 27.620691 -10.836035 -0.278583 1.616495 -4.760311 -19.469190 0.004686 0.000000 0.007220 0.000000 -0.000000 -0.000000 -6.543364 -15.202819 -21.918318 39.299686 -0.780243 -3.743968 -29.497169 -6.976775 19.282502 -3.318717 -0.000007 0.000001 0.000000 -0.000004 -0.000000 
-0.085467 77.814613 0.676876 -1.220104 -29.635463 0.958718 4.414788 0.209422 -1.573950 3.722355 0.349097 -0.506649 3.717930 0.388983 -0.514914 7.688432 3.757756 -1.356322 -3.027174 23.187700 -5.996565 0.000000 -0.000000 -0.000000 5.285775 -13.930591 -8.800803 -42.926749 29.019865 -26.659864 0.000023 -109.168334 0.000022 18.687596 -7.853268 4.074270 3.143608 10.572695 -68.370508 6.542371 6.507914 -97.517350 4.199645 5.576870 -76.337254 -0.000000 -0.000004 -0.000001 20.139347 -6.188866 1.117543 6.226520 38.554434 -20.060872 16.319847 65.132199 2.519936 -0.000001 -0.000000 0.000000 12.132969 15.226163 4.972613 -24.640596 22.572822 46.661438 0.000026 116.824047 -0.000044 -1.600601 7.921918 -17.923439 -6.589302 1.347553 11.402172 1.886976 -42.794844 -14.472807 13.978756 -58.392250 -2.604863 0.000001 0.000001 -0.000003 5.639316 -11.298147 94.224679 6.084685 -6.549542 92.945180 3.888495 -5.663653 83.362548 0.000001 -0.000000 0.000001 -32.499836 15.774650 30.173532 27.433602 -10.824714 -0.205500 1.837431 -4.785535 -19.583114 0.004737 0.000006 0.007171 -0.000000 0.000002 -0.000000 -6.650183 -15.229097 -21.805799 39.322287 -1.011056 -3.645351 -29.560686 -6.974082 19.279674 -3.351029 0.000006 0.000001 -0.000000 -0.000001 -0.000000 
-0.128628 77.799698 0.627166 -0.973915 -29.382436 1.050363 4.452858 0.186968 -1.578218 3.761833 0.334307 -0.512522 3.757610 0.373851 -0.520769 7.581468 3.782493 -1.381828 -3.330501 23.226994 -6.134911 -0.000000 -0.000000 -0.000000 5.289672 -13.871237 -8.591192 -43.025021 28.791095 -26.743162 0.000011 -109.226924 0.000008 17.906782 -7.789426 4.824902 3.143609 10.572700 -68.370501 6.542378 6.507912 -97.517329 4.199633 5.576862 -76.337281 -0.000002 0.000001 -0.000000 20.139356 -6.188856 1.117557 6.226496 38.554393 -20.060860 16.319846 65.132226 2.519957 -0.000001 -0.000002 -0.000000 12.138088 15.193681 4.854580 -24.997159 22.658610 46.919804 0.000028 116.798967 -0.000044 -1.652542 7.935255 -17.744625 -6.589325 1.347546 11.402179 1.887007 -42.794827 -14.472797 13.978773 -58.392243 -2.604828 0.000006 0.000003 -0.000001 5.639307 -11.298157 94.224673 6.084682 -6.549531 92.945160 3.888483 -5.663665 83.362554 -0.000002 -0.000000 -0.000000 -32.802595 15.599220 30.143411 27.307006 -10.814319 -0.193240 2.040050 -4.871805 -19.685951 0.004724 0.000000 0.007181 0.000000 0.000001 -0.000000 -6.742756 -15.289230 -21.723195 39.325330 -1.223616 -3.529187 -29.590651 -6.998336 19.330668 -3.292409 0.000002 0.000005 0.000000 0.000000 -0.000000 
-0.167520 77.768089 0.601982 -0.720178 -29.128394 1.108983 4.486384 0.168980 -1.600480 3.797629 0.325594 -0.537100 3.793368 0.366393 -0.545423 7.477249 3.795142 -1.339031 -3.646802 23.271581 -6.169215 0.000001 0.000000 0.000000 5.290818 -13.776849 -8.307951 -42.962757 28.551514 -26.962814 0.000014 -109.376737 0.000007 17.324783 -7.640930 5.978620 3.143607 10.572695 -68.370501 6.542382 6.507917 -97.517336 4.199628 5.576857 -76.337254 0.000002 -0.000001 0.000000 20.139339 -6.188879 1.117546 6.226507 38.554396 -20.060863 16.319846 65.132213 2.519960 0.000001 0.000001 0.000000 12.142003 15.218285 4.884914 -25.283081 22.735533 47.001206 0.000001 116.751074 -0.000008 -1.844061 7.940693 -17.707189 -6.589316 1.347549 11.402189 1.886998 -42.794837 -14.472807 13.978765 -58.392257 -2.604845 0.000002 0.000004 -0.000001 5.639310 -11.298147 94.224659 6.084654 -6.549545 92.945146 3.888491 -5.663674 83.362561 0.000000 -0.000001 -0.000000 -33.286490 15.501500 30.363930 27.312716 -10.804193 -0.384696 2.165818 -5.273532 -19.759399 0.004684 -0.000000 0.007222 -0.000000 0.000001 0.000000 -6.838557 -15.383611 -21.671628 39.276292 -1.309241 -3.368386 -29.583981 -7.046061 19.422411 -3.254428 -0.000041 -0.000001 0.000000 -0.000001 -0.000000 
-0.214851 77.672401 0.595874 -0.386850 -28.823204 1.128488 4.479264 0.115842 -1.643970 3.802779 0.289155 -0.579297 3.798812 0.331084 -0.587499 7.385703 3.802473 -1.211221 -4.090675 23.309332 -6.124760 0.000000 -0.000000 -0.000000 5.302030 -13.699538 -7.959477 -42.882359 28.442571 -27.149717 0.000018 -109.608786 -0.000004 17.007770 -7.627491 6.714729 3.143610 10.572706 -68.370508 6.542370 6.507922 -97.517316 4.199646 5.576871 -76.337254 -0.000000 -0.000001 0.000003 20.139357 -6.188857 1.117549 6.226505 38.554406 -20.060862 16.319830 65.132192 2.519953 -0.000000 0.000001 0.000001 12.141273 15.276519 5.034023 -25.464894 22.830780 46.911225 0.000063 116.664057 -0.000073 -2.101054 7.950163 -17.791956 -6.589303 1.347544 11.402182 1.886985 -42.794837 -14.472814 13.978766 -58.392250 -2.604858 0.000002 0.000001 -0.000001 5.639314 -11.298146 94.224666 6.084658 -6.549552 92.945125 3.888492 -5.663682 83.362520 0.000001 0.000001 0.000001 -34.239964 15.469310 30.950890 27.895840 -10.778387 -0.917000 1.583096 -6.170024 -19.214062 0.990477 0.000000 0.000008 -0.000000 -0.000002 -0.000000 -6.950804 -15.508038 -21.619552 39.183303 -1.337256 -3.152311 -29.557722 -7.120655 19.728224 -3.322172 -0.000005 -0.000000 0.000000 0.000000 -0.000000 
